<?xml version="1.0" encoding="UTF-8"?>
<svg width="1024px" height="512px" viewBox="0 0 1024 512" version="1.1" xmlns="http://www.w3.org/2000/svg" xmlns:xlink="http://www.w3.org/1999/xlink">
    <title>cd-config-server-flow</title>
    <defs>
        <linearGradient x1="0%" y1="37.5%" x2="101.999998%" y2="62.7499998%" id="linearGradient-1">
            <stop stop-color="#3023AE" offset="0%"></stop>
            <stop stop-color="#C86DD7" offset="100%"></stop>
        </linearGradient>
        <linearGradient x1="0%" y1="0%" x2="101.999998%" y2="100.999999%" id="linearGradient-2">
            <stop stop-color="#3023AE" offset="0%"></stop>
            <stop stop-color="#C86DD7" offset="100%"></stop>
        </linearGradient>
        <filter x="0.0%" y="0.0%" width="100.0%" height="100.0%" filterUnits="objectBoundingBox" id="filter-3">
            <feGaussianBlur stdDeviation="0" in="SourceGraphic"></feGaussianBlur>
        </filter>
    </defs>
    <g id="cd-config-server-flow" stroke="none" stroke-width="1" fill="none" fill-rule="evenodd">
        <rect id="bg" stroke="#FFFFFF" stroke-width="20" fill="url(#linearGradient-1)" x="10" y="10" width="1004" height="492" rx="70"></rect>
        <rect id="Rectangle" stroke="#FFFFFF" stroke-width="5" x="74" y="56" width="190" height="400" rx="35"></rect>
        <g id="Group-4" transform="translate(769.000000, 118.000000)">
            <g id="Group-3">
                <rect id="Rectangle-Copy-8" fill-opacity="0.3" fill="#FFFFFF" x="10" y="10" width="150" height="80" rx="35"></rect>
                <rect id="Rectangle-Copy-7" fill-opacity="0.3" fill="#FFFFFF" x="10" y="120" width="150" height="80" rx="35"></rect>
                <rect id="Rectangle-Copy-6" fill-opacity="0.3" fill="#FFFFFF" x="10" y="230" width="150" height="80" rx="35"></rect>
                <rect id="Rectangle-Copy-11" fill-opacity="0.3" fill="#FFFFFF" x="20" y="0" width="150" height="80" rx="35"></rect>
                <rect id="Rectangle-Copy-10" fill-opacity="0.3" fill="#FFFFFF" x="20" y="110" width="150" height="80" rx="35"></rect>
                <rect id="Rectangle-Copy-9" fill-opacity="0.3" fill="#FFFFFF" x="20" y="220" width="150" height="80" rx="35"></rect>
                <rect id="Rectangle-Copy-3" fill="#FFFFFF" x="0" y="20" width="150" height="80" rx="35"></rect>
                <rect id="Rectangle-Copy-4" fill="#FFFFFF" x="0" y="130" width="150" height="80" rx="35"></rect>
                <rect id="Rectangle-Copy-5" fill="#FFFFFF" x="0" y="240" width="150" height="80" rx="35"></rect>
                <text id="v3.0.0" font-family="Comfortaa-Regular_Light, Comfortaa" font-size="12" font-weight="300" fill="#C86DD7">
                    <tspan x="61.718" y="83">v3.0.0</tspan>
                </text>
                <text id="v3.0.0" font-family="Comfortaa-Regular_Light, Comfortaa" font-size="12" font-weight="300" fill="#C86DD7">
                    <tspan x="61.718" y="193">v3.0.0</tspan>
                </text>
                <text id="v3.0.0" font-family="Comfortaa-Regular_Light, Comfortaa" font-size="12" font-weight="300" fill="#C86DD7">
                    <tspan x="61.718" y="303">v3.0.0</tspan>
                </text>
            </g>
            <text id="dev.json" font-family="Comfortaa-Regular_Bold, Comfortaa" font-size="22" font-weight="bold" fill="#C86DD7">
                <tspan x="30.163" y="57">dev.json</tspan>
            </text>
            <text id="test.json" font-family="Comfortaa-Regular_Bold, Comfortaa" font-size="22" font-weight="bold" fill="#C86DD7">
                <tspan x="26.199" y="167">test.json</tspan>
            </text>
            <text id="prod.json" font-family="Comfortaa-Regular_Bold, Comfortaa" font-size="22" font-weight="bold" fill="#C86DD7">
                <tspan x="19.028" y="277">prod.json</tspan>
            </text>
        </g>
        <g id="Group-4-Copy" transform="translate(84.000000, 118.000000)">
            <g id="Group-3">
                <rect id="Rectangle-Copy-11" fill-opacity="0.3" fill="#FFFFFF" x="0" y="0" width="150" height="80" rx="35"></rect>
                <rect id="Rectangle-Copy-10" fill-opacity="0.3" fill="#FFFFFF" x="0" y="110" width="150" height="80" rx="35"></rect>
                <rect id="Rectangle-Copy-9" fill-opacity="0.3" fill="#FFFFFF" x="0" y="220" width="150" height="80" rx="35"></rect>
                <rect id="Rectangle-Copy-8" fill-opacity="0.3" fill="#FFFFFF" x="10" y="10" width="150" height="80" rx="35"></rect>
                <rect id="Rectangle-Copy-7" fill-opacity="0.3" fill="#FFFFFF" x="10" y="120" width="150" height="80" rx="35"></rect>
                <rect id="Rectangle-Copy-6" fill-opacity="0.3" fill="#FFFFFF" x="10" y="230" width="150" height="80" rx="35"></rect>
                <rect id="Rectangle-Copy-3" fill="#FFFFFF" x="20" y="20" width="150" height="80" rx="35"></rect>
                <rect id="Rectangle-Copy-4" fill="#FFFFFF" x="20" y="130" width="150" height="80" rx="35"></rect>
                <rect id="Rectangle-Copy-5" fill="#FFFFFF" x="20" y="240" width="150" height="80" rx="35"></rect>
                <text id="v1.0.0" font-family="Comfortaa-Regular_Light, Comfortaa" font-size="12" font-weight="300" fill="#C86DD7">
                    <tspan x="82.966" y="83">v1.0.0</tspan>
                </text>
                <text id="v1.0.1" font-family="Comfortaa-Regular_Light, Comfortaa" font-size="12" font-weight="300" fill="#C86DD7">
                    <tspan x="83.914" y="193">v1.0.1</tspan>
                </text>
                <text id="v2.0.0" font-family="Comfortaa-Regular_Light, Comfortaa" font-size="12" font-weight="300" fill="#C86DD7">
                    <tspan x="81.718" y="303">v2.0.0</tspan>
                </text>
            </g>
            <text id="dev" font-family="Comfortaa-Regular_Bold, Comfortaa" font-size="22" font-weight="bold" fill="#C86DD7">
                <tspan x="75.628" y="57">dev</tspan>
            </text>
            <text id="test" font-family="Comfortaa-Regular_Bold, Comfortaa" font-size="22" font-weight="bold" fill="#C86DD7">
                <tspan x="72.874" y="167">test</tspan>
            </text>
            <text id="prod" font-family="Comfortaa-Regular_Bold, Comfortaa" font-size="22" font-weight="bold" fill="#C86DD7">
                <tspan x="65.703" y="277">prod</tspan>
            </text>
        </g>
        <rect id="Rectangle-Copy" stroke="#FFFFFF" stroke-width="5" x="416" y="56" width="190" height="400" rx="35"></rect>
        <rect id="Rectangle-Copy-2" stroke="#FFFFFF" stroke-width="5" x="759" y="56" width="190" height="400" rx="35"></rect>
        <text id="YourApp" font-family="Comfortaa-Regular_Bold, Comfortaa" font-size="22" font-weight="bold" fill="#FFFFFF">
            <tspan x="119.758" y="97">YourApp</tspan>
        </text>
        <text id="Config-Server" font-family="Comfortaa-Regular_Bold, Comfortaa" font-size="22" font-weight="bold" fill="#FFFFFF">
            <tspan x="433.147" y="165">Config Server</tspan>
        </text>
        <text id="/yourapp/1.0.0/dev" font-family="Comfortaa-Regular_Light, Comfortaa" font-size="12" font-weight="300" fill="#FFFFFF">
            <tspan x="283.45" y="157">/yourapp/1.0.0/dev</tspan>
        </text>
        <text id="api.github" font-family="Comfortaa-Regular_Light, Comfortaa" font-size="12" font-weight="300" fill="#FFFFFF">
            <tspan x="649.284" y="239">api.github</tspan>
        </text>
        <g id="Group-2" transform="translate(431.000000, 208.000000)">
            <text id="get-config-releases" font-family="Comfortaa-Regular_Light, Comfortaa" font-size="12" font-weight="300" fill="#FFFFFF">
                <tspan x="22.384" y="46">get config releases</tspan>
                <tspan x="80.5" y="60"></tspan>
                <tspan x="80.5" y="74"></tspan>
                <tspan x="80.5" y="88"></tspan>
                <tspan x="80.5" y="102"></tspan>
                <tspan x="3.334" y="116">find json matching stage</tspan>
                <tspan x="80.5" y="130"></tspan>
                <tspan x="80.5" y="144"></tspan>
                <tspan x="80.5" y="158"></tspan>
                <tspan x="80.5" y="172"></tspan>
                <tspan x="0.202" y="186">return compatible configs</tspan>
            </text>
            <g id="Group" transform="translate(68.000000, 0.000000)">
                <circle id="Oval" fill="#FFFFFF" cx="12.5" cy="12.5" r="12.5"></circle>
                <text id="1" font-family="Comfortaa-Regular_Bold, Comfortaa" font-size="16" font-weight="bold" fill="#C86DD7">
                    <tspan x="9.356" y="18">1</tspan>
                </text>
            </g>
            <g id="counter-copy" transform="translate(68.000000, 143.000000)">
                <circle id="Oval" fill="#FFFFFF" cx="12.5" cy="12.5" r="12.5"></circle>
                <text id="1" font-family="Comfortaa-Regular_Bold, Comfortaa" font-size="16" font-weight="bold" fill="#C86DD7">
                    <tspan x="7.708" y="18">3</tspan>
                </text>
            </g>
            <g id="counter-copy" transform="translate(68.000000, 71.000000)">
                <circle id="Oval" fill="#FFFFFF" cx="12.5" cy="12.5" r="12.5"></circle>
                <text id="1" font-family="Comfortaa-Regular_Bold, Comfortaa" font-size="16" font-weight="bold" fill="#C86DD7">
                    <tspan x="7.796" y="18">2</tspan>
                </text>
            </g>
        </g>
        <path id="Line" d="M397.5,169 L416.5,178.5 L397.5,188 L397.5,180 L283.5,180 L283.5,188 L264.5,178.5 L283.5,169 L283.5,177 L397.5,177 L397.5,169 Z" fill="#FFFFFF" fill-rule="nonzero"></path>
        <path id="Line-Copy-2" d="M738.5,247 L757.5,256.5 L738.5,266 L738.5,258 L624.5,258 L624.5,266 L605.5,256.5 L624.5,247 L624.5,255 L738.5,255 L738.5,247 Z" fill="#FFFFFF" fill-rule="nonzero"></path>
        <text id="/yourapp/1.0.1/test" font-family="Comfortaa-Regular_Light, Comfortaa" font-size="12" font-weight="300" fill="#FFFFFF">
            <tspan x="282.822" y="267">/yourapp/1.0.1/test</tspan>
        </text>
        <path id="Line-Copy" d="M396.5,279 L415.5,288.5 L396.5,298 L396.5,290 L282.5,290 L282.5,298 L263.5,288.5 L282.5,279 L282.5,287 L396.5,287 L396.5,279 Z" fill="#FFFFFF" fill-rule="nonzero"></path>
        <text id="/yourapp/2.0.0/prod" font-family="Comfortaa-Regular_Light, Comfortaa" font-size="12" font-weight="300" fill="#FFFFFF">
            <tspan x="277.362" y="377">/yourapp/2.0.0/prod</tspan>
        </text>
        <path id="Line-Copy" d="M396.5,389 L415.5,398.5 L396.5,408 L396.5,400 L282.5,400 L282.5,408 L263.5,398.5 L282.5,389 L282.5,397 L396.5,397 L396.5,389 Z" fill="#FFFFFF" fill-rule="nonzero"></path>
        <text id="Github" font-family="Comfortaa-Regular_Bold, Comfortaa" font-size="22" font-weight="bold" fill="#FFFFFF">
            <tspan x="814.472" y="97">Github</tspan>
        </text>
        <g id="logo" transform="translate(487.000000, 76.000000)">
            <rect id="Rectangle" stroke="#FFFFFF" stroke-width="2" fill="url(#linearGradient-2)" x="1" y="1" width="49" height="49" rx="12"></rect>
            <path d="M35.6705958,18.2627887 L35.6694267,27.2699523 C34.1597814,27.7412645 33.0642033,29.1488836 33.0642033,30.8120911 C33.0642033,32.4752986 34.1597814,33.8829176 35.6694267,34.3542298 L35.6694267,34.3542298 L35.6692446,38.1502987 C33.7618005,37.8711048 32.0887184,36.8714234 30.9358751,35.4367989 C29.743868,36.0436791 28.4370392,36.4578766 27.0566134,36.6387655 L27.0552709,30.8481731 C29.7878834,30.1496194 31.8079892,27.6737148 31.8079892,24.7265379 C31.8079892,21.7793611 29.7878834,19.3034565 27.0552709,18.6049028 L27.0552709,18.6049028 L27.0564864,12.7533322 C30.6819849,13.2282542 33.8005909,15.3116883 35.6705958,18.2627887 Z M44.2265625,30.772656 C44.2265625,34.4996663 41.4890967,37.5880507 37.9129221,38.1412604 L37.9134353,34.3463763 C39.4102402,33.8674416 40.4938121,32.4661601 40.4938121,30.8120911 C40.4938121,29.1580221 39.4102402,27.7567406 37.9134353,27.2778059 L37.9134353,27.2778059 L37.9134596,23.403876 C41.4889835,23.9571334 44.2265625,27.0455686 44.2265625,30.772656 Z M23.9149848,12.7500441 L23.9157971,18.6031278 C21.1796555,19.2992538 19.156119,21.7768595 19.156119,24.7265379 C19.156119,27.6762163 21.1796555,30.1538221 23.9157971,30.8499481 L23.9157971,30.8499481 L23.9149195,36.6420783 C21.8173352,36.3718011 19.8886316,35.563218 18.2721741,34.3595278 C17.416572,34.909766 16.4402688,35.2900451 15.3916472,35.452376 L15.3903257,31.6579347 C16.8876408,31.1793001 17.9716886,29.7777664 17.9716886,28.1233342 C17.9716886,26.468902 16.8876408,25.0673683 15.3903257,24.5887336 L15.3903257,24.5887336 L15.3898255,18.0859095 C17.2755997,15.221808 20.3516068,13.2091713 23.9149848,12.7500441 Z M13.1475994,20.7061864 L13.1473031,24.5811954 C11.6376578,25.0525076 10.5420797,26.4601267 10.5420797,28.1233342 C10.5420797,29.7865417 11.6376578,31.1941607 13.1473031,31.6654729 L13.1473031,31.6654729 L13.1475994,35.4616118 C9.54183463,34.934072 6.7734375,31.8319065 6.7734375,28.0838991 C6.7734375,24.3358916 9.54183463,21.2337261 13.1475994,20.7061864 Z" id="logo-copy-8" fill="#FFFFFF" filter="url(#filter-3)"></path>
        </g>
    </g>
</svg>