<svg height="512" viewBox="0 0 512 512" width="512" xmlns="http://www.w3.org/2000/svg" xmlns:xlink="http://www.w3.org/1999/xlink"><linearGradient id="a" x1="0%" x2="102%" y1="0%" y2="101%"><stop offset="0" stop-color="#3023ae"/><stop offset="1" stop-color="#c86dd7"/></linearGradient><filter id="b" height="100%" width="100%" x="0%" y="0%"><feGaussianBlur in="SourceGraphic" stdDeviation="0"/></filter><g fill="none" fill-rule="evenodd"><rect fill="url(#a)" height="492" rx="120" stroke="#fff" stroke-width="20" width="492" x="10" y="10"/><path d="m358.100473 183.33724-.002296 90.430098c-15.158292 4.730024-26.159509 18.862715-26.159509 35.56189s11.001217 30.831866 26.159509 35.56189l.000399 38.109032c-19.150083-2.801075-35.947663-12.835827-47.522654-27.237506-11.972181 6.090107-25.094819 10.247646-38.955753 12.062849l.000397-58.135785c27.429804-7.015324 47.706698-31.869785 47.706698-61.45466 0-29.584876-20.276894-54.439337-47.706698-61.454661l.0008-58.747528c36.396298 4.766333 67.704461 25.680035 86.479107 55.304381zm85.899527 125.59609c0 37.415271-27.480556 68.419579-63.381149 73.974569l.000142-38.096528c15.027866-4.807471 25.907121-18.875791 25.907121-35.482143s-10.879255-30.674672-25.907121-35.482143l-.000165-38.887779c35.899961 5.553707 63.381172 36.558307 63.381172 73.974024zm-203.908643-180.93336-.000721 58.762168c-27.466075 6.990379-47.778226 31.862324-47.778226 61.47291 0 29.610585 20.312151 54.48253 47.778226 61.472909l.000929 58.150353c-21.058443-2.712608-40.421544-10.829539-56.650004-22.91317-8.596955 5.524026-18.399742 9.340876-28.926863 10.969732l.00056-38.096742c15.027492-4.80769 25.9064-18.875826 25.9064-35.481913 0-16.606086-10.878908-30.674222-25.9064-35.481912l-.002467-65.302682c18.933302-28.745426 49.810425-48.944177 85.578566-53.551653zm-108.09741 79.873556-.000397 38.900855c-15.158204 4.730076-26.159338 18.862724-26.159338 35.561836 0 16.699113 11.001134 30.83176 26.159338 35.561837l.000397 38.10906c-36.2002029-5.295076-63.993947-36.438921-63.993947-74.066794s27.7937441-68.771718 63.993947-74.066794z" fill="#fff" filter="url(#b)"/></g></svg>