<?xml version="1.0" encoding="UTF-8"?>
<svg width="512px" height="512px" viewBox="0 0 512 512" version="1.1" xmlns="http://www.w3.org/2000/svg" xmlns:xlink="http://www.w3.org/1999/xlink">
    <title>cd-config-server-logo</title>
    <defs>
        <linearGradient x1="0%" y1="0%" x2="101.999998%" y2="100.999999%" id="linearGradient-1">
            <stop stop-color="#3023AE" offset="0%"></stop>
            <stop stop-color="#C86DD7" offset="100%"></stop>
        </linearGradient>
        <filter x="-0.0%" y="-0.0%" width="100.0%" height="100.0%" filterUnits="objectBoundingBox" id="filter-2">
            <feGaussianBlur stdDeviation="0" in="SourceGraphic"></feGaussianBlur>
        </filter>
    </defs>
    <g id="cd-config-server-logo" stroke="none" stroke-width="1" fill="none" fill-rule="evenodd">
        <g id="Group">
            <rect id="Rectangle" stroke="#FFFFFF" stroke-width="20" fill="url(#linearGradient-1)" x="10" y="10" width="492" height="492" rx="120"></rect>
            <path d="M358.100473,183.33724 L358.098177,273.767338 C342.939885,278.497362 331.938668,292.630053 331.938668,309.329228 C331.938668,326.028403 342.939885,340.161094 358.098177,344.891118 L358.098177,344.891118 L358.098576,383.00015 C338.948493,380.199075 322.150913,370.164323 310.575922,355.762644 C298.603741,361.852751 285.481103,366.01029 271.620169,367.825493 L271.620566,309.689708 C299.05037,302.674384 319.327264,277.819923 319.327264,248.235048 C319.327264,218.650172 299.05037,193.795711 271.620566,186.780387 L271.620566,186.780387 L271.621366,128.032859 C308.017664,132.799192 339.325827,153.712894 358.100473,183.33724 Z M444,308.93333 C444,346.348601 416.519444,377.352909 380.618851,382.907899 L380.618993,344.811371 C395.646859,340.0039 406.526114,325.93558 406.526114,309.329228 C406.526114,292.722876 395.646859,278.654556 380.618993,273.847085 L380.618993,273.847085 L380.618828,234.959306 C416.518789,240.513013 444,271.517613 444,308.93333 Z M240.091357,127.99997 L240.090636,186.762138 C212.624561,193.752517 192.31241,218.624462 192.31241,248.235048 C192.31241,277.845633 212.624561,302.717578 240.090636,309.707957 L240.090636,309.707957 L240.091565,367.85831 C219.033122,365.145702 199.670021,357.028771 183.441561,344.94514 C174.844606,350.469166 165.041819,354.286016 154.514698,355.914872 L154.515258,317.81813 C169.54275,313.01044 180.421658,298.942304 180.421658,282.336217 C180.421658,265.730131 169.54275,251.661995 154.515258,246.854305 L154.515258,246.854305 L154.512791,181.551623 C173.446093,152.806197 204.323216,132.607446 240.091357,127.99997 Z M131.993947,207.873526 L131.99355,246.774381 C116.835346,251.504457 105.834212,265.637105 105.834212,282.336217 C105.834212,299.03533 116.835346,313.167977 131.99355,317.898054 L131.99355,317.898054 L131.993947,356.007114 C95.7937441,350.712038 68,319.568193 68,281.94032 C68,244.312447 95.7937441,213.168602 131.993947,207.873526 Z" id="logo-copy-8" fill="#FFFFFF" filter="url(#filter-2)"></path>
        </g>
    </g>
</svg>